<?xml version="1.0" standalone="no"?>
<!DOCTYPE svg PUBLIC "-//W3C//DTD SVG 20010904//EN"
 "http://www.w3.org/TR/2001/REC-SVG-20010904/DTD/svg10.dtd">
<svg version="1.0" xmlns="http://www.w3.org/2000/svg"
 width="600.000000pt" height="600.000000pt" viewBox="0 0 600.000000 600.000000"
 preserveAspectRatio="xMidYMid meet">

<g transform="translate(0.000000,600.000000) scale(0.100000,-0.100000)"
fill="#000000" stroke="none">
<path d="M4485 4800 c-133 -19 -255 -77 -328 -159 l-38 -42 -80 16 c-208 39
-456 1 -637 -97 -183 -100 -338 -270 -432 -471 -49 -105 -66 -157 -96 -287
-33 -145 -32 -158 16 -205 22 -21 41 -37 43 -34 2 2 11 56 20 119 17 124 38
204 61 235 14 19 26 20 210 19 l196 -2 10 42 c34 130 77 213 138 267 59 52 78
52 56 2 -50 -117 -86 -221 -91 -263 l-6 -48 69 -7 c200 -19 413 -66 552 -122
35 -14 67 -21 71 -17 5 5 16 38 25 74 31 115 57 202 61 198 2 -1 13 -75 25
-164 l23 -161 138 -37 c76 -21 165 -48 196 -60 l58 -22 3 -162 c1 -89 5 -162
8 -162 2 0 32 11 65 26 l61 25 76 -31 c43 -17 89 -44 104 -60 44 -47 59 -135
39 -222 -11 -45 -5 -48 92 -48 235 1 368 95 399 283 6 36 8 80 4 99 l-6 35
-103 -1 c-90 -1 -108 2 -150 24 -85 43 -143 125 -185 260 -35 115 -43 199 -46
485 -2 255 -5 287 -25 354 -53 177 -135 269 -273 305 -72 19 -245 27 -323 16z"/>
<path d="M3363 3580 c-85 -52 -96 -165 -22 -236 27 -26 37 -29 99 -29 62 0 71
3 100 30 75 72 60 194 -30 240 -41 21 -109 19 -147 -5z"/>
<path d="M4200 3408 c-126 -86 -67 -268 86 -268 42 0 59 5 84 26 60 51 76 118
42 184 -38 77 -142 105 -212 58z"/>
<path d="M3439 3121 c-18 -19 -29 -40 -29 -58 0 -44 53 -145 95 -182 150 -131
397 -128 515 6 62 70 63 131 5 169 -33 22 -59 14 -130 -42 -152 -118 -186
-113 -292 37 -76 109 -110 124 -164 70z"/>
<path d="M1785 2941 c-367 -59 -661 -300 -776 -637 -59 -173 -81 -378 -60
-554 17 -137 16 -135 72 -158 27 -12 49 -18 49 -14 0 4 7 62 15 129 25 205 70
389 109 449 19 28 45 54 56 54 4 0 52 -31 106 -70 54 -38 107 -70 118 -70 15
0 47 35 114 125 51 69 99 125 107 125 8 0 71 -36 141 -80 69 -44 129 -80 133
-80 4 0 44 54 89 120 46 66 89 120 96 120 7 0 65 -36 129 -80 67 -46 125 -80
139 -79 16 0 42 24 91 85 37 46 74 84 82 84 43 0 295 -363 311 -448 7 -34 7
-34 47 -28 23 4 43 9 45 11 6 6 -16 128 -39 220 -51 198 -128 335 -268 475
-149 148 -296 231 -496 281 -89 23 -323 34 -410 20z"/>
<path d="M2350 1903 c-143 -74 -81 -296 79 -280 80 9 133 67 133 147 0 110
-116 183 -212 133z"/>
<path d="M1501 1753 c-91 -46 -105 -173 -26 -242 46 -40 93 -48 150 -26 80 30
117 121 80 199 -35 73 -131 106 -204 69z"/>
<path d="M2288 1458 c-8 -7 -32 -44 -53 -83 -52 -95 -73 -122 -106 -135 -39
-17 -73 -6 -170 50 -95 56 -128 61 -164 25 -49 -48 -18 -125 72 -183 67 -43
129 -56 225 -49 66 5 91 13 142 41 69 38 140 109 161 159 7 18 16 53 20 79 7
44 5 50 -23 78 -33 32 -76 40 -104 18z"/>
</g>
</svg>
